<?xml version="1.0" standalone="no"?>
<!DOCTYPE svg PUBLIC "-//W3C//DTD SVG 20010904//EN"
 "http://www.w3.org/TR/2001/REC-SVG-20010904/DTD/svg10.dtd">
<svg version="1.0" xmlns="http://www.w3.org/2000/svg"
 width="1024.000000pt" height="1024.000000pt" viewBox="0 0 1024.000000 1024.000000"
 preserveAspectRatio="xMidYMid meet">

<g transform="translate(0.000000,1024.000000) scale(0.100000,-0.100000)"
fill="#000000" stroke="none">
<path d="M5100 8540 c-69 -4 -143 -10 -165 -14 -22 -3 -94 -13 -160 -21 -523
-68 -1082 -317 -1517 -676 -304 -251 -478 -456 -729 -859 -228 -366 -404 -908
-446 -1370 -8 -89 -7 -780 2 -788 5 -5 84 15 215 54 221 65 495 97 850 97 279
0 356 -9 625 -78 295 -76 409 -121 865 -340 398 -191 844 -371 1053 -425 131
-34 395 -82 552 -101 61 -7 216 -13 350 -13 225 0 248 1 367 27 331 72 556
180 798 383 203 171 339 351 476 634 85 175 142 345 163 483 9 65 21 118 26
118 25 -1 28 -377 5 -502 -17 -90 -71 -295 -92 -349 -114 -298 -398 -643 -683
-831 -219 -145 -489 -251 -735 -289 -107 -16 -413 -13 -560 6 -30 4 -66 8 -80
9 -92 9 -362 65 -455 95 -261 83 -389 126 -445 150 -36 16 -128 54 -205 84
-132 51 -258 107 -555 246 -69 32 -181 78 -250 103 -69 25 -142 53 -163 62
-179 75 -528 154 -827 186 -163 18 -205 19 -359 9 -247 -15 -414 -46 -636
-117 -93 -30 -304 -135 -334 -167 -20 -22 -20 -22 -2 -71 10 -27 24 -51 31
-53 6 -2 59 19 116 48 117 58 204 89 346 125 224 57 569 85 810 65 124 -10
400 -60 558 -100 80 -21 352 -111 405 -136 17 -7 66 -26 110 -43 81 -29 166
-66 375 -161 343 -157 770 -320 1005 -385 334 -92 627 -132 905 -122 375 12
660 77 930 211 247 123 568 437 739 723 227 381 265 1002 101 1653 -51 203
-118 383 -223 603 -214 448 -527 838 -932 1162 -92 74 -358 249 -465 308 -185
100 -526 232 -738 286 -121 31 -338 59 -581 76 -238 16 -246 16 -441 5z m440
-173 c19 -4 78 -9 130 -12 153 -9 194 -15 315 -45 118 -30 203 -68 340 -151
44 -26 108 -60 143 -75 34 -15 62 -29 62 -33 0 -16 -142 -64 -271 -91 -133
-28 -150 -30 -229 -20 -177 21 -303 71 -403 160 -64 58 -96 107 -126 195 -11
33 -23 68 -27 79 -6 16 -4 17 12 8 10 -5 35 -12 54 -15z m-446 -77 c-84 -201
-184 -287 -389 -340 -103 -26 -196 -25 -335 4 -128 27 -196 48 -255 79 -33 17
-36 22 -20 25 37 7 123 51 207 103 219 138 394 189 651 189 62 0 119 5 127 10
8 5 22 10 32 10 14 0 11 -12 -18 -80z m141 -90 c-22 -185 -60 -306 -163 -505
-50 -98 -179 -263 -342 -435 -184 -195 -248 -268 -365 -415 -96 -121 -344
-377 -357 -369 -15 10 -1 49 37 101 19 26 73 102 121 168 48 66 140 199 205
295 108 160 230 313 409 510 104 115 145 164 171 206 13 22 29 45 36 53 8 7
23 32 35 55 11 22 31 55 43 71 41 55 133 239 156 312 12 40 24 72 25 70 1 -1
-4 -54 -11 -117z m249 -202 c109 -194 220 -345 364 -493 235 -241 318 -343
466 -570 77 -118 174 -249 247 -333 37 -43 51 -79 42 -113 -7 -26 -22 -24 -32
4 -5 12 -33 45 -61 72 -46 44 -147 157 -389 435 -36 41 -154 165 -261 275
-222 227 -288 316 -394 534 -72 148 -93 225 -102 363 l-5 93 34 -82 c18 -45
60 -128 91 -185z m-1176 -164 c206 -34 386 -37 482 -6 35 12 66 20 68 18 1 -2
-19 -23 -45 -46 -28 -24 -63 -70 -83 -108 -29 -54 -51 -80 -125 -139 -100 -81
-166 -117 -305 -164 -88 -31 -105 -33 -225 -33 -111 -1 -144 3 -225 26 -120
34 -286 106 -370 162 -36 24 -80 51 -97 62 -37 20 -42 34 -15 34 22 0 101 31
237 92 180 82 344 125 478 127 37 1 139 -11 225 -25z m2388 6 c127 -23 248
-64 405 -139 58 -27 127 -55 154 -62 44 -11 47 -13 29 -26 -45 -34 -425 -215
-484 -230 -50 -14 -104 -18 -235 -18 -167 1 -171 1 -260 34 -195 72 -373 188
-416 272 -11 23 -18 43 -16 45 6 6 141 -48 197 -79 58 -32 209 -75 313 -88
149 -19 487 23 487 61 0 13 -60 20 -169 20 -137 0 -313 22 -526 66 -93 19
-203 37 -243 41 -62 5 -83 12 -130 43 -65 41 -93 70 -71 70 8 0 43 -9 79 -20
86 -26 253 -26 437 0 76 10 152 21 168 23 77 10 176 5 281 -13z m-3137 -506
c36 -9 93 -30 125 -45 33 -16 66 -29 73 -29 8 0 11 -4 8 -10 -3 -5 -14 -10
-24 -10 -9 0 -35 -18 -56 -41 -104 -106 -177 -141 -275 -128 -104 14 -160 37
-245 100 -44 33 -90 62 -102 66 -23 5 29 27 187 79 111 37 210 42 309 18z
m3806 -9 c50 -14 123 -32 163 -42 39 -9 72 -19 72 -22 0 -12 -159 -121 -202
-140 -110 -47 -239 -63 -291 -36 -29 15 -188 138 -184 142 2 1 39 -8 82 -19
96 -26 270 -30 355 -9 67 17 124 40 117 48 -3 3 -69 0 -147 -7 -92 -8 -174
-10 -233 -5 -51 5 -123 9 -160 11 -37 1 -70 3 -72 6 -6 6 138 66 198 83 81 22
198 18 302 -10z m-979 -183 c50 -34 224 -185 364 -317 132 -125 381 -307 380
-278 -1 13 -471 475 -543 533 -88 71 -166 117 -223 131 -24 6 -47 15 -50 20
-2 4 8 4 23 -1 15 -5 80 -14 143 -20 276 -26 384 -72 540 -231 67 -67 108
-119 139 -175 139 -250 171 -303 215 -352 28 -30 73 -70 100 -89 37 -24 44
-33 26 -29 -14 3 -70 10 -125 16 -171 19 -314 60 -450 128 -102 50 -160 91
-249 171 -91 82 -161 169 -236 296 -29 50 -70 117 -91 150 -21 33 -46 78 -55
100 -10 22 -23 47 -29 56 -5 8 10 -7 35 -33 25 -27 63 -61 86 -76z m-2049 66
c-87 -152 -117 -203 -171 -283 -189 -283 -358 -426 -609 -511 -104 -35 -437
-91 -437 -73 0 5 4 9 8 9 4 0 33 22 64 50 66 59 156 188 226 325 60 117 132
208 232 294 130 112 256 160 499 190 91 11 167 18 169 16 2 -2 11 2 19 10 25
25 25 17 0 -27z m669 -110 c62 -29 142 -104 183 -173 19 -31 47 -98 61 -149
21 -71 30 -92 46 -94 34 -5 54 21 73 93 28 109 59 164 132 236 75 75 141 106
245 116 71 7 111 -11 152 -66 l22 -30 -103 2 c-120 2 -176 -13 -251 -71 -58
-44 -106 -110 -137 -190 -19 -49 -23 -82 -27 -228 -4 -157 -3 -174 16 -210 34
-67 37 -104 10 -144 -52 -77 -134 -89 -203 -29 -49 43 -54 85 -22 163 24 60
24 64 16 216 -12 229 -39 312 -134 399 -26 24 -72 55 -103 69 -50 24 -71 27
-167 29 -113 2 -122 6 -92 41 15 18 66 44 102 52 42 8 128 -6 181 -32z m-1888
-181 c31 -33 38 -81 17 -113 -14 -22 -22 -25 -48 -20 -70 14 -89 77 -40 128
32 34 43 35 71 5z m4442 -7 c27 -27 26 -74 -2 -100 -60 -56 -129 24 -82 95 20
31 56 33 84 5z m-1910 -170 c86 -61 209 -68 348 -20 85 29 142 33 142 10 0
-15 -74 -71 -136 -101 -78 -39 -176 -49 -256 -25 -68 20 -136 77 -144 124 -8
38 5 41 46 12z m-1030 -21 c100 -52 187 -49 332 11 26 11 54 20 62 20 48 0
-21 -82 -107 -127 -47 -25 -62 -28 -152 -28 -89 0 -106 3 -157 28 -49 24 -94
66 -122 115 -15 26 81 14 144 -19z m1771 -196 c42 -43 92 -103 111 -133 62
-98 71 -132 75 -280 5 -155 -7 -203 -77 -320 -53 -89 -113 -145 -260 -242 -94
-62 -131 -93 -148 -123 l-23 -40 6 45 c14 91 52 152 185 295 104 112 156 241
166 407 9 146 -25 272 -111 419 -19 33 -35 62 -35 65 0 13 43 -22 111 -93z
m-2124 15 c-66 -121 -104 -275 -114 -469 -5 -102 -3 -125 16 -190 32 -105 120
-273 120 -229 0 8 -11 69 -25 135 -14 66 -27 140 -30 165 l-5 45 24 -60 c23
-61 52 -118 169 -330 92 -166 111 -227 112 -346 0 -84 -4 -103 -27 -150 -26
-53 -125 -184 -133 -176 -2 2 10 35 28 73 31 65 33 76 33 174 -1 151 -12 172
-184 340 -129 125 -142 142 -185 230 -42 86 -48 106 -58 205 -9 92 -9 125 4
202 23 134 66 214 184 346 54 59 99 105 102 103 2 -3 -11 -33 -31 -68z m995
-650 c31 -9 53 -9 99 1 58 12 62 11 127 -20 60 -28 73 -31 130 -26 60 6 62 5
52 -13 -21 -40 -67 -53 -165 -47 -49 3 -115 1 -145 -4 -35 -6 -75 -5 -110 2
-43 8 -72 7 -135 -4 -76 -15 -82 -15 -127 5 -64 27 -68 44 -9 45 27 1 82 16
136 37 104 41 96 39 147 24z m2846 -17 c10 -6 -5 -40 -58 -142 -119 -223 -250
-459 -308 -554 -30 -49 -70 -117 -89 -150 -48 -84 -80 -115 -223 -213 -69 -47
-179 -127 -245 -177 -276 -210 -382 -280 -489 -320 -78 -29 -42 -28 -591 -28
-214 0 -412 0 -440 0 -32 0 -65 8 -93 22 -43 22 -191 80 -487 192 -88 33 -162
62 -164 64 -10 11 132 185 233 287 123 124 295 228 475 288 147 49 342 90 484
100 149 12 332 35 392 51 22 6 114 40 204 75 93 37 175 64 190 62 41 -5 54
-43 35 -107 -12 -41 -29 -67 -77 -114 -99 -99 -203 -146 -512 -231 -197 -55
-319 -128 -364 -218 -23 -46 -20 -59 6 -36 34 30 118 66 208 89 80 20 116 23
315 24 304 2 416 28 665 153 123 61 136 71 235 171 67 68 143 160 210 255 244
346 269 373 384 433 64 34 83 38 104 24z m-2548 -127 c0 -19 -67 -94 -107
-119 -41 -26 -59 -30 -130 -34 -101 -4 -144 14 -218 90 l-50 51 65 -6 c193
-17 235 -17 325 3 100 22 115 24 115 15z m2130 -11 c0 -3 -53 -84 -117 -180
-151 -225 -184 -246 -128 -83 38 110 101 198 185 254 24 16 60 22 60 9z
m-2699 -332 c143 -85 211 -104 342 -99 116 5 170 24 315 109 45 27 82 45 82
40 0 -17 -103 -102 -169 -141 -86 -49 -165 -72 -255 -72 -90 1 -152 15 -241
57 -62 30 -195 131 -235 179 -13 17 -12 17 22 3 19 -8 82 -43 139 -76z"/>
<path d="M5535 8289 c82 -86 264 -176 410 -204 87 -17 250 -25 285 -15 22 6
19 9 -30 23 -30 8 -145 41 -255 72 -110 31 -236 72 -280 92 -44 19 -98 42
-120 49 l-39 15 29 -32z"/>
<path d="M4955 8253 c-117 -42 -283 -92 -417 -124 -70 -17 -135 -37 -145 -44
-15 -11 -10 -14 41 -20 198 -25 505 72 585 184 27 37 26 37 -64 4z"/>
<path d="M4660 7745 c-220 -62 -516 -110 -747 -121 -79 -4 -143 -11 -143 -15
0 -12 37 -30 95 -46 80 -23 314 -28 420 -10 186 33 422 135 455 198 6 10 9 19
8 18 -2 0 -41 -11 -88 -24z"/>
<path d="M3605 7239 c-22 -4 -101 -9 -175 -9 -74 -1 -160 -5 -190 -9 -54 -6
-54 -7 -30 -21 33 -19 248 -26 334 -11 93 16 170 42 154 53 -15 9 -39 9 -93
-3z"/>
<path d="M4236 7195 c-77 -31 -203 -116 -300 -200 -133 -117 -409 -425 -394
-441 8 -8 222 164 353 283 66 60 150 134 186 164 131 108 239 203 239 211 0
13 -22 9 -84 -17z"/>
<path d="M3135 4134 c-391 -17 -556 -52 -858 -183 l-48 -21 15 -28 c8 -16 35
-44 60 -63 25 -19 44 -39 41 -46 -2 -7 22 1 53 17 85 43 151 67 259 94 157 40
260 50 533 51 255 0 255 0 460 -39 191 -36 248 -50 500 -126 98 -29 229 -80
337 -131 35 -16 65 -29 68 -29 4 0 72 -32 153 -71 81 -39 158 -76 172 -81 21
-7 132 -55 338 -145 165 -72 475 -177 672 -228 74 -19 144 -39 155 -44 24 -11
180 -36 325 -53 170 -19 574 -16 705 5 233 37 561 142 672 214 50 33 143 126
143 143 0 7 30 76 48 113 9 17 -42 4 -105 -27 -142 -70 -412 -185 -503 -214
-191 -60 -417 -87 -650 -79 -198 8 -478 39 -592 66 -46 11 -117 27 -158 36
-231 50 -714 228 -1150 425 -306 139 -388 172 -580 239 -241 84 -401 127 -620
165 -204 36 -311 45 -445 40z"/>
<path d="M2866 3931 c-12 -5 1 -8 37 -9 32 -1 57 3 57 8 0 12 -66 12 -94 1z"/>
<path d="M2760 3910 c0 -5 -7 -10 -15 -10 -8 0 -15 -4 -15 -10 0 -5 14 -10 30
-10 17 0 30 5 30 10 0 6 11 10 25 10 14 0 25 5 25 10 0 6 -18 10 -40 10 -22 0
-40 -4 -40 -10z"/>
<path d="M2655 3885 c-16 -7 -35 -11 -42 -8 -7 3 -13 0 -13 -6 0 -6 5 -11 12
-11 20 0 -2 -14 -27 -17 -13 -2 -26 1 -30 7 -3 5 -13 10 -21 10 -9 0 -12 -5
-8 -12 5 -7 2 -9 -8 -5 -21 8 -143 -55 -192 -99 -23 -20 -34 -34 -25 -31 13 4
16 -1 13 -33 -3 -34 0 -40 26 -51 22 -10 26 -16 18 -26 -8 -11 -7 -12 8 -7 18
7 18 6 -1 -16 -14 -16 -16 -22 -5 -18 8 3 21 -2 28 -11 11 -14 11 -14 6 3 -6
16 -5 17 15 7 12 -7 25 -19 28 -27 7 -18 43 -18 79 1 16 8 36 15 44 14 8 0 -7
-11 -33 -25 -26 -14 -53 -22 -59 -18 -6 4 -8 3 -4 -4 3 -6 -2 -15 -11 -21 -17
-9 -17 -11 4 -26 12 -8 29 -36 39 -62 9 -27 23 -53 31 -59 9 -8 10 -13 3 -16
-16 -5 83 -153 156 -233 11 -12 35 -41 54 -65 75 -98 283 -297 420 -405 290
-226 553 -370 940 -514 279 -104 496 -157 780 -191 233 -28 602 -27 840 0 110
13 371 63 480 91 105 28 341 108 367 125 12 8 31 14 42 14 11 0 23 5 26 10 3
6 14 10 23 10 9 0 31 7 47 16 17 8 62 29 100 45 39 16 94 45 124 64 29 19 57
35 62 35 4 0 35 17 68 38 33 20 81 49 106 64 25 16 44 32 40 37 -3 5 0 13 6
17 8 4 9 3 5 -4 -10 -16 -1 -15 37 5 28 14 30 17 13 23 -14 4 -16 9 -8 14 7 4
10 11 7 16 -3 4 2 10 9 13 10 4 14 0 11 -12 -2 -10 3 -18 11 -18 13 0 16 5 13
23 0 4 5 11 13 16 9 6 6 7 -9 3 -12 -3 -24 -1 -28 5 -8 13 19 40 40 40 12 0
15 5 11 16 -3 9 -6 18 -6 20 0 2 -5 4 -11 4 -15 0 -39 26 -39 42 0 8 -5 19
-11 25 -7 7 -8 13 0 17 6 4 20 -5 33 -19 12 -14 32 -25 45 -25 13 0 23 -4 23
-10 0 -19 66 -11 85 10 10 11 24 20 32 20 8 0 11 5 8 10 -9 15 -19 12 -43 -10
-12 -12 -22 -16 -22 -10 0 5 -7 10 -15 10 -8 0 -15 5 -15 10 0 6 14 10 30 10
23 0 30 4 30 20 0 12 -7 20 -17 20 -14 0 -14 3 5 20 14 13 35 20 62 20 27 0
39 4 35 11 -4 6 -13 8 -20 5 -8 -3 -19 2 -25 10 -10 11 -9 14 6 15 11 0 14 3
6 6 -7 3 -22 22 -32 44 -11 21 -25 39 -30 39 -6 0 -10 7 -10 15 0 12 -16 15
-80 15 -47 0 -80 4 -80 10 0 6 -9 10 -19 10 -11 0 -23 -4 -26 -10 -3 -5 -1
-10 4 -10 6 0 11 -18 11 -40 0 -33 3 -40 20 -40 11 0 20 -7 20 -15 0 -8 -8
-15 -17 -15 -15 0 -16 2 -3 10 13 9 13 10 0 10 -18 0 -34 -11 -37 -25 -2 -14
69 -6 80 9 6 7 7 6 5 -3 -3 -8 -54 -31 -119 -53 -118 -40 -289 -89 -289 -83 0
2 7 10 14 18 11 11 13 22 6 43 -7 25 -8 26 -9 7 -1 -30 -41 -33 -41 -3 0 11 4
20 9 20 6 0 18 13 28 30 10 18 26 30 39 30 13 0 25 10 32 25 14 29 27 32 41 8
8 -14 10 -8 11 29 0 38 -3 46 -15 42 -8 -3 -27 1 -43 8 -29 15 -102 13 -102
-3 0 -5 -36 -9 -80 -9 -47 0 -80 -4 -80 -10 0 -6 33 -10 80 -10 52 0 80 -4 80
-11 0 -8 4 -8 14 0 24 20 66 -1 66 -33 0 -12 -10 -16 -40 -16 -33 0 -40 -3
-40 -19 0 -11 6 -21 12 -23 10 -4 9 -9 -3 -20 -12 -13 -56 -16 -252 -20 -171
-3 -237 -1 -237 7 0 6 -22 18 -50 25 -27 7 -50 17 -50 22 0 4 -13 8 -30 8 -16
0 -30 5 -30 10 0 6 -18 10 -40 10 -29 0 -40 -4 -40 -15 0 -8 -4 -15 -9 -15
-11 0 -32 25 -26 32 3 2 -5 4 -18 4 -17 -1 -22 5 -23 27 -1 15 3 27 7 27 5 0
9 9 9 20 0 11 -4 20 -10 20 -21 0 -9 30 13 30 22 1 22 1 -3 14 -14 7 -42 16
-62 20 l-38 7 0 -36 c0 -34 -1 -35 -39 -35 -22 0 -42 6 -44 13 -4 7 -8 3 -12
-10 -4 -13 -15 -23 -25 -23 -10 0 -20 10 -24 23 -4 14 -9 18 -13 11 -5 -7 -43
-15 -85 -19 -67 -6 -78 -10 -78 -26 0 -20 -15 -26 -25 -10 -11 18 -68 41 -102
41 -18 0 -33 5 -33 10 0 6 18 10 40 10 22 0 40 5 40 10 0 12 -36 12 -122 0
-66 -10 -118 0 -118 22 0 13 18 10 24 -4 5 -10 7 -10 12 0 4 8 30 12 76 12 61
0 69 2 58 15 -14 17 -90 21 -90 5 0 -6 -33 -10 -80 -10 -44 0 -80 4 -80 9 0 5
-35 12 -77 16 -43 4 -87 13 -98 21 -11 8 -32 14 -48 14 -26 0 -28 -2 -16 -17
8 -9 9 -14 3 -10 -6 3 -11 1 -11 -6 0 -7 14 -13 30 -13 23 -1 26 1 13 8 -20
11 -21 28 -1 28 8 0 15 -4 15 -10 0 -5 7 -10 16 -10 12 0 15 -7 12 -23 -4 -21
-1 -23 25 -19 21 3 28 1 23 -7 -5 -7 4 -11 26 -12 38 -1 87 -17 55 -18 -10 -1
-15 -5 -12 -11 3 -5 32 -10 65 -10 38 0 60 -4 63 -13 3 -9 -9 -12 -52 -10 -55
2 -189 50 -248 89 -13 8 -23 12 -23 9 0 -4 -12 2 -27 13 -16 10 -41 22 -56 26
-17 4 -25 11 -21 18 4 6 3 8 -4 4 -16 -10 -64 12 -56 26 4 6 3 8 -3 5 -6 -4
-47 10 -92 30 -70 31 -79 38 -68 52 10 14 10 14 -5 3 -14 -11 -25 -9 -75 16
-32 16 -104 48 -160 72 -56 24 -99 48 -96 54 3 5 1 6 -6 2 -6 -4 -51 8 -99 28
-122 49 -275 102 -352 121 -36 8 -74 20 -85 25 -32 15 -155 41 -263 56 -20 3
-48 7 -62 9 -14 2 -61 6 -105 10 -125 9 -166 15 -159 26 3 6 -5 7 -22 3 -23
-6 -26 -4 -21 10 4 11 1 16 -11 16 -9 0 -28 19 -42 43 -17 30 -25 37 -28 25
-5 -23 -82 -26 -82 -4 0 8 6 16 13 19 10 4 10 7 0 18 -11 11 -13 10 -13 -4 0
-23 -26 -21 -53 3 -12 12 -23 16 -25 10 -7 -19 -42 -11 -42 10 0 17 -7 20 -52
21 -29 0 -75 4 -103 9 l-50 7 53 2 c30 0 52 6 52 12 0 7 -21 10 -57 8 -32 -1
-69 3 -83 9 -14 6 -18 11 -9 11 8 1 20 -4 27 -11 6 -6 14 -9 17 -6 3 2 -3 12
-12 20 -15 13 -23 13 -48 3z m-225 -89 c0 -2 -12 -11 -27 -20 l-28 -17 24 20
c23 21 31 25 31 17z m530 -46 c0 -5 -9 -10 -20 -10 -11 0 -20 5 -20 10 0 6 9
10 20 10 11 0 20 -4 20 -10z m-86 -79 c6 -10 -24 -25 -32 -16 -3 3 0 5 7 5 7
0 9 5 6 10 -3 6 -2 10 4 10 5 0 12 -4 15 -9z m166 -17 c0 -9 -12 -14 -32 -15
-18 -1 -57 -3 -87 -5 -45 -3 -51 -1 -41 11 19 23 160 31 160 9z m65 -4 c3 -6
-4 -10 -17 -10 -18 0 -20 2 -8 10 19 12 18 12 25 0z m-530 -70 c-4 -6 6 -10
22 -10 22 -1 25 -3 12 -10 -22 -13 -59 -1 -52 16 3 8 9 14 15 14 5 0 6 -4 3
-10z m124 6 c-12 -10 -69 -24 -69 -16 0 5 10 11 23 13 31 6 51 8 46 3z m-199
-40 c0 -3 -4 -8 -10 -11 -5 -3 -10 -1 -10 4 0 6 5 11 10 11 6 0 10 -2 10 -4z
m873 -83 c-40 -2 -107 -2 -150 0 -43 1 -10 3 72 3 83 0 118 -2 78 -3z m-325
-10 c-10 -2 -26 -2 -35 0 -10 3 -2 5 17 5 19 0 27 -2 18 -5z m476 -1 c6 -10
-40 -10 -50 1 -4 4 4 7 19 7 14 0 28 -4 31 -8z m59 -9 c-7 -2 -19 -2 -25 0 -7
3 -2 5 12 5 14 0 19 -2 13 -5z m207 -34 c141 -31 278 -78 465 -161 128 -57
124 -55 193 -83 35 -14 96 -43 135 -64 118 -63 250 -129 280 -140 16 -6 25
-15 22 -21 -3 -5 0 -7 8 -4 8 3 57 -17 110 -44 71 -37 91 -51 77 -55 -11 -3
-18 -1 -15 3 5 8 -4 12 -58 24 -15 4 -25 11 -22 16 3 5 -11 7 -32 4 -24 -4
-33 -2 -25 3 10 7 8 14 -8 28 -16 14 -19 15 -15 4 8 -21 -19 -42 -45 -34 -15
5 -19 12 -14 31 6 24 -9 34 -21 14 -3 -5 -26 -10 -51 -10 -24 0 -44 5 -44 10
0 6 16 10 35 10 19 0 35 5 35 10 0 6 -17 10 -38 10 -22 0 -53 7 -71 16 -33 16
-48 14 -36 -5 3 -6 15 -11 26 -11 23 0 25 -15 4 -24 -9 -3 -18 1 -21 9 -8 19
-24 19 -24 0 0 -8 -9 -15 -20 -15 -11 0 -20 7 -20 15 0 9 -10 15 -22 16 -15 1
-9 5 17 12 22 5 46 16 53 23 14 15 7 38 -9 28 -12 -7 -119 17 -119 27 0 4 6
10 13 12 6 3 2 6 -10 6 -13 1 -23 6 -23 11 0 6 -8 5 -20 -2 -11 -7 -15 -15 -9
-18 18 -12 -1 -35 -44 -54 -32 -14 -45 -15 -57 -7 -8 7 -23 14 -32 17 -10 4
-18 10 -18 15 0 5 -7 9 -15 9 -9 0 -15 -9 -14 -22 0 -13 3 -17 6 -10 8 19 23
14 23 -8 0 -22 25 -27 34 -7 3 6 4 0 2 -15 -2 -19 1 -28 11 -28 8 0 11 -4 8
-10 -4 -6 -15 -4 -29 5 -21 14 -25 14 -36 0 -11 -13 -10 -14 5 -9 13 5 16 4
11 -4 -4 -7 -19 -10 -34 -7 -15 2 -9 -2 13 -9 22 -8 32 -15 23 -15 -30 -2 -70
18 -62 31 5 8 2 9 -10 5 -19 -8 -76 18 -76 34 0 6 7 3 16 -6 9 -9 24 -13 34
-10 11 3 28 0 39 -7 11 -7 23 -9 27 -6 9 10 -21 38 -40 38 -9 0 -16 5 -16 10
0 6 -6 10 -14 10 -8 0 -17 6 -20 13 -5 10 -7 10 -12 0 -6 -14 -33 -17 -59 -7
-13 5 -14 8 -3 15 16 10 -55 79 -83 79 -10 0 -21 5 -24 10 -3 6 -21 10 -40 10
-55 0 -65 8 -65 52 0 30 -6 44 -27 63 -35 31 -51 31 -55 3 -3 -22 -4 -22 -35
10 -17 17 -38 32 -47 32 -12 0 -16 10 -16 40 0 38 -2 40 -30 40 -24 0 -30 -4
-30 -21 0 -18 -2 -20 -15 -9 -9 7 -14 19 -11 26 2 6 -5 15 -17 18 -33 9 -44 7
-27 -4 11 -7 -2 -10 -42 -10 -32 0 -58 4 -58 10 0 10 64 16 133 11 21 -1 44 2
50 7 7 6 23 12 37 14 18 3 11 6 -25 12 -27 4 -63 12 -80 17 -52 15 72 -1 165
-22z m-1040 -1 c-19 -5 -55 -17 -80 -26 -25 -10 -49 -19 -55 -21 -5 -1 0 4 12
13 21 16 115 45 143 44 8 0 -1 -4 -20 -10z m930 -1 c24 1 24 0 4 -9 -14 -7
-31 -5 -55 6 -33 15 -33 15 -4 8 17 -3 41 -6 55 -5z m80 -217 c0 -5 -6 -10
-14 -10 -8 0 -18 5 -21 10 -3 6 3 10 14 10 12 0 21 -4 21 -10z m150 0 c0 -5
-16 -10 -35 -10 -19 0 -35 5 -35 10 0 6 16 10 35 10 19 0 35 -4 35 -10z m-823
-26 c-3 -3 -12 -4 -19 -1 -8 3 -5 6 6 6 11 1 17 -2 13 -5z m-54 -11 c-7 -2
-19 -2 -25 0 -7 3 -2 5 12 5 14 0 19 -2 13 -5z m867 -3 c0 -5 -13 -10 -30 -10
-16 0 -30 5 -30 10 0 6 14 10 30 10 17 0 30 -4 30 -10z m-913 -6 c-3 -3 -12
-4 -19 -1 -8 3 -5 6 6 6 11 1 17 -2 13 -5z m749 -4 c13 0 24 -4 24 -9 0 -5
-16 -5 -37 -1 -20 5 -41 6 -46 3 -6 -4 -7 -1 -3 6 5 7 15 10 23 7 8 -3 26 -6
39 -6z m92 -31 c-12 -7 -24 -7 -35 0 -15 9 -12 10 17 10 29 0 32 -1 18 -10z
m107 -47 c-2 -2 -13 -1 -26 3 -16 5 -18 9 -9 15 11 7 43 -10 35 -18z m60 -12
c-3 -5 -1 -10 6 -10 7 0 10 -3 7 -6 -4 -3 -19 1 -35 10 l-28 15 28 1 c16 0 26
-4 22 -10z m82 -24 c-4 -10 5 -16 28 -20 18 -4 39 -13 46 -22 11 -14 9 -14
-22 -1 -19 8 -47 20 -63 27 -24 9 -27 13 -15 21 21 13 32 11 26 -5z m423 -26
c0 -22 -4 -40 -10 -40 -5 0 -10 18 -10 40 0 22 5 40 10 40 6 0 10 -18 10 -40z
m820 30 c0 -5 -16 -10 -35 -10 -19 0 -35 5 -35 10 0 6 16 10 35 10 19 0 35 -4
35 -10z m-1953 -27 c-20 -2 -52 -2 -70 0 -17 2 0 4 38 4 39 0 53 -2 32 -4z
m2073 -33 c0 -5 -4 -10 -9 -10 -6 0 -13 5 -16 10 -3 6 1 10 9 10 9 0 16 -4 16
-10z m400 -20 c0 -5 -18 -10 -40 -10 -22 0 -40 5 -40 10 0 6 18 10 40 10 22 0
40 -4 40 -10z m-404 -13 c12 -11 -7 -25 -29 -22 -99 15 -122 31 -41 29 35 -1
67 -4 70 -7z m-636 -47 c0 -5 -4 -10 -10 -10 -5 0 -10 5 -10 10 0 6 5 10 10
10 6 0 10 -4 10 -10z m-160 -30 c0 -11 -4 -20 -9 -20 -6 0 -9 9 -8 20 1 11 5
20 9 20 4 0 8 -9 8 -20z m1160 9 c0 -5 -18 -9 -39 -9 -22 0 -42 4 -45 9 -4 5
14 9 39 9 25 0 45 -4 45 -9z m280 1 c0 -5 -16 -10 -35 -10 -19 0 -35 5 -35 10
0 6 16 10 35 10 19 0 35 -4 35 -10z m-1663 -6 c-3 -3 -12 -4 -19 -1 -8 3 -5 6
6 6 11 1 17 -2 13 -5z m1198 -14 c5 0 3 5 -5 10 -12 7 -8 10 15 10 l29 0 -22
-16 c-23 -16 -76 -12 -87 6 -3 5 9 5 27 -1 18 -5 37 -9 43 -9z m-1045 0 c0 -5
-4 -10 -9 -10 -6 0 -13 5 -16 10 -3 6 1 10 9 10 9 0 16 -4 16 -10z m1350 0 c0
-5 -9 -10 -20 -10 -11 0 -20 5 -20 10 0 6 9 10 20 10 11 0 20 -4 20 -10z
m-785 -28 c-3 -3 -11 0 -18 7 -9 10 -8 11 6 5 10 -3 15 -9 12 -12z m945 8 c0
-5 -13 -10 -30 -10 -16 0 -30 5 -30 10 0 6 14 10 30 10 17 0 30 -4 30 -10z
m-1590 -6 c0 -8 -19 -13 -24 -6 -3 5 1 9 9 9 8 0 15 -2 15 -3z m752 -42 c-9
-3 -82 26 -82 33 0 2 20 -4 45 -13 26 -9 42 -18 37 -20z m518 18 c0 -5 -5 -10
-11 -10 -5 0 -7 5 -4 10 3 6 8 10 11 10 2 0 4 -4 4 -10z m-1174 -22 c2 -14 -2
-15 -22 -6 -18 8 -21 14 -12 20 18 11 31 5 34 -14z m1471 16 c-3 -3 -12 -4
-19 -1 -8 3 -5 6 6 6 11 1 17 -2 13 -5z m-240 -10 c-3 -3 -12 -4 -19 -1 -8 3
-5 6 6 6 11 1 17 -2 13 -5z m70 -10 c-3 -3 -12 -4 -19 -1 -8 3 -5 6 6 6 11 1
17 -2 13 -5z m84 -7 c-4 -4 -18 -3 -32 2 -23 9 -22 9 8 8 18 -1 28 -6 24 -10z
m-582 -33 c70 -31 38 -24 -49 11 -36 14 -52 23 -36 20 17 -4 55 -18 85 -31z
m661 32 c0 -2 -13 -6 -29 -8 -17 -2 -28 -1 -25 4 5 8 54 12 54 4z m214 -42 c9
-24 0 -29 -18 -11 -8 8 -12 17 -9 21 11 10 21 7 27 -10z m-104 -4 c0 -5 -12
-10 -27 -9 -25 0 -26 1 -8 9 27 12 35 12 35 0z m326 -4 c11 -11 11 -16 1 -20
-6 -3 39 -4 102 -2 62 3 111 2 108 -1 -11 -10 -75 -12 -236 -6 -122 4 -159 8
-145 16 46 26 149 34 170 13z m297 -10 c-4 -5 1 -7 11 -3 9 4 15 3 12 -2 -7
-11 -86 -19 -86 -9 0 5 6 8 13 8 8 0 8 3 -2 9 -10 6 -3 9 22 8 20 0 33 -5 30
-11z m107 4 c-20 -13 -70 -13 -70 0 0 6 19 10 43 10 31 0 38 -3 27 -10z
m-1420 -4 c0 -2 -7 -7 -16 -10 -8 -3 -12 -2 -9 4 6 10 25 14 25 6z m767 -2
c-3 -3 -12 -4 -19 -1 -8 3 -5 6 6 6 11 1 17 -2 13 -5z m990 -26 c-15 -11 -24
-25 -21 -30 4 -6 3 -8 -3 -5 -6 4 -19 0 -29 -8 -45 -34 -31 -11 17 29 30 25
56 42 59 39 3 -2 -7 -14 -23 -25z m-1602 -18 c77 -21 132 -39 122 -39 -9 -1
-52 9 -95 20 -42 12 -96 27 -119 33 -23 7 -45 15 -49 19 -10 10 -14 11 141
-33z m-785 -2 c0 -5 -9 -4 -20 2 -11 6 -20 12 -20 14 0 2 9 2 20 -1 11 -3 20
-9 20 -15z m957 -44 c-3 -3 -12 -4 -19 -1 -8 3 -5 6 6 6 11 1 17 -2 13 -5z
m40 -10 c-3 -3 -12 -4 -19 -1 -8 3 -5 6 6 6 11 1 17 -2 13 -5z m1261 -19 c-20
-14 -40 -25 -44 -25 -5 0 7 11 26 25 19 14 39 25 44 25 6 0 -6 -11 -26 -25z
m-1211 9 c-3 -3 -12 -4 -19 -1 -8 3 -5 6 6 6 11 1 17 -2 13 -5z m60 -10 c-3
-3 -12 -4 -19 -1 -8 3 -5 6 6 6 11 1 17 -2 13 -5z m46 -11 c-7 -2 -19 -2 -25
0 -7 3 -2 5 12 5 14 0 19 -2 13 -5z m64 -9 c-3 -3 -12 -4 -19 -1 -8 3 -5 6 6
6 11 1 17 -2 13 -5z m358 -44 c61 -6 123 -13 139 -16 27 -6 28 -7 10 -17 -21
-12 -168 -48 -160 -39 7 7 -14 32 -26 32 -6 0 -4 -8 3 -17 13 -16 12 -17 -3
-4 -20 15 -15 30 10 32 17 1 -19 10 -108 28 -43 8 -44 9 -10 10 19 0 85 -4
145 -9z m525 -25 c0 -2 -10 -9 -22 -15 -22 -11 -22 -10 -4 4 21 17 26 19 26
11z m-586 -60 c-4 -8 -11 -15 -16 -15 -6 0 -5 6 2 15 7 8 14 15 16 15 2 0 1
-7 -2 -15z m-34 -15 c0 -5 -4 -10 -9 -10 -6 0 -13 5 -16 10 -3 6 1 10 9 10 9
0 16 -4 16 -10z m240 -104 c-14 -7 -36 -16 -50 -20 -14 -3 -7 3 15 13 45 22
73 27 35 7z m-1024 -59 c4 -4 -31 -6 -77 -6 -64 1 -76 3 -49 9 40 9 116 7 126
-3z"/>
<path d="M3757 3353 c6 -15 83 -18 83 -4 0 5 -20 11 -44 12 -32 3 -42 1 -39
-8z"/>
<path d="M4160 3050 c0 -5 21 -10 48 -9 38 1 42 2 22 9 -36 12 -70 12 -70 0z"/>
<path d="M4378 3033 c7 -3 16 -2 19 1 4 3 -2 6 -13 5 -11 0 -14 -3 -6 -6z"/>
<path d="M4670 3022 c0 -10 12 -25 28 -34 25 -15 28 -15 42 0 13 14 12 15 -3
9 -12 -5 -26 1 -43 18 -20 20 -24 21 -24 7z"/>
<path d="M4862 2909 c2 -6 8 -10 13 -10 5 0 11 4 13 10 2 6 -4 11 -13 11 -9 0
-15 -5 -13 -11z"/>
<path d="M5388 2933 c7 -3 16 -2 19 1 4 3 -2 6 -13 5 -11 0 -14 -3 -6 -6z"/>
<path d="M6443 2703 c9 -2 23 -2 30 0 6 3 -1 5 -18 5 -16 0 -22 -2 -12 -5z"/>
<path d="M2565 3860 c3 -5 11 -10 16 -10 6 0 7 5 4 10 -3 6 -11 10 -16 10 -6
0 -7 -4 -4 -10z"/>
<path d="M2284 3689 c-4 -7 -3 -9 4 -5 5 3 13 0 15 -6 4 -9 6 -10 6 -1 1 17
-16 25 -25 12z"/>
<path d="M3308 3663 c6 -2 18 -2 25 0 6 3 1 5 -13 5 -14 0 -19 -2 -12 -5z"/>
<path d="M3368 3663 c6 -2 18 -2 25 0 6 3 1 5 -13 5 -14 0 -19 -2 -12 -5z"/>
<path d="M2412 3504 c10 -10 20 -16 22 -13 3 3 -5 11 -17 18 -21 13 -21 12 -5
-5z"/>
<path d="M4813 3183 c9 -2 23 -2 30 0 6 3 -1 5 -18 5 -16 0 -22 -2 -12 -5z"/>
<path d="M4927 3163 c-10 -9 -9 -23 1 -23 5 0 9 7 9 15 0 17 -1 18 -10 8z"/>
<path d="M4960 3140 c0 -13 7 -20 20 -20 11 0 20 5 20 10 0 6 10 10 23 10 18
0 19 2 7 10 -8 5 -27 10 -42 10 -21 0 -28 -5 -28 -20z"/>
<path d="M5600 3050 c0 -5 5 -10 10 -10 6 0 10 5 10 10 0 6 -4 10 -10 10 -5 0
-10 -4 -10 -10z"/>
<path d="M5891 3056 c2 -2 20 -6 39 -10 25 -4 31 -3 20 4 -14 9 -69 15 -59 6z"/>
<path d="M5170 3006 c0 -2 7 -7 16 -10 8 -3 12 -2 9 4 -6 10 -25 14 -25 6z"/>
<path d="M6378 2993 c7 -3 16 -2 19 1 4 3 -2 6 -13 5 -11 0 -14 -3 -6 -6z"/>
<path d="M6335 2970 c-16 -7 -17 -9 -3 -9 9 -1 20 4 23 9 7 11 7 11 -20 0z"/>
<path d="M6395 2972 c-2 -2 -1 -10 2 -18 6 -17 40 -19 45 -2 2 6 24 11 51 11
26 0 47 4 47 8 0 7 -137 8 -145 1z"/>
<path d="M6560 2970 c0 -12 121 -12 195 0 40 6 26 8 -72 9 -76 0 -123 -3 -123
-9z"/>
<path d="M6100 2910 c0 -5 5 -10 11 -10 5 0 7 5 4 10 -3 6 -8 10 -11 10 -2 0
-4 -4 -4 -10z"/>
<path d="M6375 2910 c-3 -5 1 -10 9 -10 9 0 16 5 16 10 0 6 -4 10 -9 10 -6 0
-13 -4 -16 -10z"/>
<path d="M6488 2913 c7 -3 16 -2 19 1 4 3 -2 6 -13 5 -11 0 -14 -3 -6 -6z"/>
<path d="M6560 2910 c0 -12 147 -12 205 -1 30 7 10 9 -82 10 -76 1 -123 -3
-123 -9z"/>
<path d="M6440 2890 c0 -12 44 -12 80 0 20 6 14 8 -27 9 -29 1 -53 -3 -53 -9z"/>
<path d="M6960 2823 c0 -13 5 -23 10 -23 13 0 13 11 0 30 -8 12 -10 11 -10 -7z"/>
<path d="M7520 2736 c0 -16 37 -29 45 -16 3 5 -3 14 -14 19 -26 14 -31 14 -31
-3z"/>
<path d="M7466 2664 c-5 -14 -4 -15 9 -4 17 14 19 20 6 20 -5 0 -12 -7 -15
-16z"/>
</g>
</svg>
